<svg width="20" height="20" viewBox="0 0 20 20" fill="none" xmlns="http://www.w3.org/2000/svg">
<path d="M14.6084 11.761C14.6084 12.601 14.8474 12.936 15.4724 12.936C16.8654 12.936 17.7524 11.161 17.7524 8.209C17.7524 3.697 14.4644 1.537 10.3594 1.537C6.13644 1.537 2.29544 4.369 2.29544 9.721C2.29544 14.833 5.65544 17.617 10.8154 17.617C12.5674 17.617 13.7434 17.425 15.5424 16.825L15.9284 18.432C14.1524 19.009 12.2544 19.176 10.7914 19.176C4.02344 19.176 0.398438 15.456 0.398438 9.72C0.398438 3.936 4.59944 0 10.3834 0C16.4074 0 19.5984 3.6 19.5984 8.016C19.5984 11.76 18.4234 14.616 14.7274 14.616C13.0464 14.616 11.9434 13.944 11.7994 12.455C11.3674 14.111 10.2154 14.616 8.65444 14.616C6.56644 14.616 4.81444 13.007 4.81444 9.768C4.81444 6.504 6.35144 4.488 9.11144 4.488C10.5754 4.488 11.4874 5.064 11.8934 5.976L12.5904 4.704H14.6064V11.761H14.6084ZM11.6574 8.593C11.6574 7.274 10.6724 6.721 9.85644 6.721C8.96844 6.721 7.98544 7.44 7.98544 9.553C7.98544 11.233 8.72944 12.169 9.85644 12.169C10.6484 12.169 11.6574 11.665 11.6574 10.273V8.593Z" fill="#1B1C31"/>
</svg>
