<svg width="19" height="21" viewBox="0 0 19 21" fill="none" xmlns="http://www.w3.org/2000/svg">
<path d="M9.09667 11.1236C8.74868 11.1249 8.41077 11.2406 8.13488 11.4527C7.85899 11.6648 7.66039 11.9616 7.56962 12.2975C7.47886 12.6335 7.50094 12.9899 7.63248 13.3121C7.76402 13.6343 7.99774 13.9044 8.2977 14.0808V16.3462H9.91514V14.0808C10.1525 13.9404 10.3494 13.741 10.4869 13.502C10.6243 13.2629 10.6976 12.9924 10.6995 12.7167V12.7167C10.6995 12.5066 10.658 12.2987 10.5773 12.1048C10.4966 11.9109 10.3784 11.7348 10.2295 11.5867C10.0805 11.4387 9.90372 11.3215 9.70931 11.2421C9.5149 11.1626 9.3067 11.1223 9.09667 11.1236V11.1236Z" stroke="#1B1C31" stroke-linecap="round" stroke-linejoin="round"/>
<path d="M15.0844 7.46487H3.10462C1.94227 7.46487 1 8.40714 1 9.56949V17.8954C1 19.0577 1.94227 20 3.10462 20H15.0844C16.2467 20 17.189 19.0577 17.189 17.8954V9.56949C17.189 8.40714 16.2467 7.46487 15.0844 7.46487Z" stroke="#1B1C31" stroke-width="2" stroke-linecap="round" stroke-linejoin="round"/>
<path d="M3.9082 7.46487V6.19333C3.9082 4.81598 4.45536 3.49503 5.4293 2.52109C6.40323 1.54715 7.72418 1 9.10154 1C10.4789 1 11.7998 1.54715 12.7738 2.52109C13.7477 3.49503 14.2949 4.81598 14.2949 6.19333V7.46487" stroke="#1B1C31" stroke-width="2" stroke-linecap="round" stroke-linejoin="round"/>
</svg>
